<svg xmlns="http://www.w3.org/2000/svg" viewBox="0 0 850 320" width="100%" height="320">
  <defs>
    <linearGradient id="grad" x1="0%" y1="0%" x2="0%" y2="100%">
      <stop offset="0%" stop-color="#8b5cf6" stop-opacity="0.45"/>
      <stop offset="100%" stop-color="#8b5cf6" stop-opacity="0.0"/>
    </linearGradient>
    <linearGradient id="lineGrad" x1="0%" y1="0%" x2="100%" y2="0%">
      <stop offset="0%" stop-color="#a855f7"/>
      <stop offset="100%" stop-color="#ec4899"/>
    </linearGradient>
  </defs>

  <!-- Background Card -->
  <rect width="850" height="320" rx="10" fill="#0d1117" stroke="#30363d" stroke-width="1.5"/>

  <!-- Header Section -->
  <text x="60" y="35" fill="#f0f6fc" font-family="-apple-system,BlinkMacSystemFont,Segoe UI,sans-serif" font-size="16" font-weight="600">Naviware Active User Analytics</text>
  <text x="60" y="53" fill="#8b949e" font-family="-apple-system,BlinkMacSystemFont,Segoe UI,sans-serif" font-size="12">Daily Active Licenses &amp; Session Telemetry (Past 12 Months)</text>

  <!-- Stats Badges Right -->
  <text x="520" y="35" fill="#8b949e" font-family="sans-serif" font-size="11">Active Licenses</text>
  <text x="520" y="55" fill="#ec4899" font-family="sans-serif" font-size="18" font-weight="bold">70</text>

  <text x="630" y="35" fill="#8b949e" font-family="sans-serif" font-size="11">Seen (24H)</text>
  <text x="630" y="55" fill="#a855f7" font-family="sans-serif" font-size="18" font-weight="bold">15</text>

  <text x="740" y="35" fill="#8b949e" font-family="sans-serif" font-size="11">Seen (30D)</text>
  <text x="740" y="55" fill="#38bdf8" font-family="sans-serif" font-size="18" font-weight="bold">35</text>

  <!-- Grid Horizontal Lines -->
  <line x1="60" y1="70" x2="820" y2="70" stroke="#21262d" stroke-width="1" stroke-dasharray="4"/>
  <line x1="60" y1="170.0" x2="820" y2="170.0" stroke="#21262d" stroke-width="1" stroke-dasharray="4"/>
  <line x1="60" y1="270" x2="820" y2="270" stroke="#30363d" stroke-width="1.5"/>

  <!-- Axis Labels -->
  <text x="50" y="74" fill="#8b949e" font-family="sans-serif" font-size="10" text-anchor="end">47</text>
  <text x="50" y="174.0" fill="#8b949e" font-family="sans-serif" font-size="10" text-anchor="end">23</text>
  <text x="50" y="274" fill="#8b949e" font-family="sans-serif" font-size="10" text-anchor="end">0</text>

  <!-- Filled Gradient Area under line -->
  <polygon points="60,270 60.0,265.7 69.2,265.7 78.3,265.7 87.5,265.7 96.6,265.7 105.8,265.7 114.9,265.7 124.1,265.7 133.3,265.7 142.4,265.7 151.6,265.7 160.7,265.7 169.9,265.7 179.0,265.7 188.2,265.7 197.3,265.7 206.5,265.7 215.7,265.7 224.8,265.7 234.0,265.7 243.1,265.7 252.3,265.7 261.4,265.7 270.6,265.7 279.8,265.7 288.9,261.5 298.1,261.5 307.2,261.5 316.4,261.5 325.5,261.5 334.7,261.5 343.9,261.5 353.0,261.5 362.2,261.5 371.3,261.5 380.5,261.5 389.6,261.5 398.8,261.5 408.0,261.5 417.1,261.5 426.3,261.5 435.4,261.5 444.6,261.5 453.7,261.5 462.9,261.5 472.0,257.2 481.2,257.2 490.4,257.2 499.5,257.2 508.7,257.2 517.8,257.2 527.0,257.2 536.1,257.2 545.3,257.2 554.5,253.0 563.6,253.0 572.8,261.5 581.9,253.0 591.1,257.2 600.2,257.2 609.4,253.0 618.6,253.0 627.7,248.7 636.9,248.7 646.0,257.2 655.2,248.7 664.3,253.0 673.5,253.0 682.7,248.7 691.8,253.0 701.0,253.0 710.1,248.7 719.3,253.0 728.4,253.0 737.6,248.7 746.7,248.7 755.9,253.0 765.1,253.0 774.2,244.5 783.4,244.5 792.5,253.0 801.7,253.0 810.8,253.0 820.0,248.7 820,270" fill="url(#grad)"/>

  <!-- Main Trend Line -->
  <polyline points="60.0,265.7 69.2,265.7 78.3,265.7 87.5,265.7 96.6,265.7 105.8,265.7 114.9,265.7 124.1,265.7 133.3,265.7 142.4,265.7 151.6,265.7 160.7,265.7 169.9,265.7 179.0,265.7 188.2,265.7 197.3,265.7 206.5,265.7 215.7,265.7 224.8,265.7 234.0,265.7 243.1,265.7 252.3,265.7 261.4,265.7 270.6,265.7 279.8,265.7 288.9,261.5 298.1,261.5 307.2,261.5 316.4,261.5 325.5,261.5 334.7,261.5 343.9,261.5 353.0,261.5 362.2,261.5 371.3,261.5 380.5,261.5 389.6,261.5 398.8,261.5 408.0,261.5 417.1,261.5 426.3,261.5 435.4,261.5 444.6,261.5 453.7,261.5 462.9,261.5 472.0,257.2 481.2,257.2 490.4,257.2 499.5,257.2 508.7,257.2 517.8,257.2 527.0,257.2 536.1,257.2 545.3,257.2 554.5,253.0 563.6,253.0 572.8,261.5 581.9,253.0 591.1,257.2 600.2,257.2 609.4,253.0 618.6,253.0 627.7,248.7 636.9,248.7 646.0,257.2 655.2,248.7 664.3,253.0 673.5,253.0 682.7,248.7 691.8,253.0 701.0,253.0 710.1,248.7 719.3,253.0 728.4,253.0 737.6,248.7 746.7,248.7 755.9,253.0 765.1,253.0 774.2,244.5 783.4,244.5 792.5,253.0 801.7,253.0 810.8,253.0 820.0,248.7" fill="none" stroke="url(#lineGrad)" stroke-width="2.5" stroke-linecap="round" stroke-linejoin="round"/>
</svg>