<svg xmlns="http://www.w3.org/2000/svg" viewBox="0 0 850 320" width="100%" height="320">
  <defs>
    <linearGradient id="grad" x1="0%" y1="0%" x2="0%" y2="100%">
      <stop offset="0%" stop-color="#8b5cf6" stop-opacity="0.45"/>
      <stop offset="100%" stop-color="#8b5cf6" stop-opacity="0.0"/>
    </linearGradient>
    <linearGradient id="lineGrad" x1="0%" y1="0%" x2="100%" y2="0%">
      <stop offset="0%" stop-color="#a855f7"/>
      <stop offset="100%" stop-color="#ec4899"/>
    </linearGradient>
  </defs>

  <!-- Background Card -->
  <rect width="850" height="320" rx="10" fill="#0d1117" stroke="#30363d" stroke-width="1.5"/>

  <!-- Header Section -->
  <text x="60" y="35" fill="#f0f6fc" font-family="-apple-system,BlinkMacSystemFont,Segoe UI,sans-serif" font-size="16" font-weight="600">Naviware Active User Analytics</text>
  <text x="60" y="53" fill="#8b949e" font-family="-apple-system,BlinkMacSystemFont,Segoe UI,sans-serif" font-size="12">Daily Active Licenses &amp; Session Telemetry (Past 12 Months)</text>

  <!-- Stats Badges Right -->
  <text x="520" y="35" fill="#8b949e" font-family="sans-serif" font-size="11">Active Licenses</text>
  <text x="520" y="55" fill="#ec4899" font-family="sans-serif" font-size="18" font-weight="bold">70</text>

  <text x="630" y="35" fill="#8b949e" font-family="sans-serif" font-size="11">Seen (24H)</text>
  <text x="630" y="55" fill="#a855f7" font-family="sans-serif" font-size="18" font-weight="bold">15</text>

  <text x="740" y="35" fill="#8b949e" font-family="sans-serif" font-size="11">Seen (30D)</text>
  <text x="740" y="55" fill="#38bdf8" font-family="sans-serif" font-size="18" font-weight="bold">35</text>

  <!-- Grid Horizontal Lines -->
  <line x1="60" y1="70" x2="820" y2="70" stroke="#21262d" stroke-width="1" stroke-dasharray="4"/>
  <line x1="60" y1="170.0" x2="820" y2="170.0" stroke="#21262d" stroke-width="1" stroke-dasharray="4"/>
  <line x1="60" y1="270" x2="820" y2="270" stroke="#30363d" stroke-width="1.5"/>

  <!-- Axis Labels -->
  <text x="50" y="74" fill="#8b949e" font-family="sans-serif" font-size="10" text-anchor="end">47</text>
  <text x="50" y="174.0" fill="#8b949e" font-family="sans-serif" font-size="10" text-anchor="end">23</text>
  <text x="50" y="274" fill="#8b949e" font-family="sans-serif" font-size="10" text-anchor="end">0</text>

  <!-- Filled Gradient Area under line -->
  <polygon points="60,270 60.0,265.7 73.1,265.7 86.2,265.7 99.3,265.7 112.4,265.7 125.5,265.7 138.6,265.7 151.7,265.7 164.8,265.7 177.9,265.7 191.0,265.7 204.1,265.7 217.2,265.7 230.3,265.7 243.4,265.7 256.6,265.7 269.7,265.7 282.8,265.7 295.9,265.7 309.0,265.7 322.1,265.7 335.2,265.7 348.3,265.7 361.4,265.7 374.5,265.7 387.6,265.7 400.7,265.7 413.8,265.7 426.9,265.7 440.0,265.7 453.1,265.7 466.2,265.7 479.3,265.7 492.4,265.7 505.5,265.7 518.6,265.7 531.7,265.7 544.8,265.7 557.9,265.7 571.0,265.7 584.1,265.7 597.2,265.7 610.3,265.7 623.4,265.7 636.6,265.7 649.7,265.7 662.8,265.7 675.9,265.7 689.0,265.7 702.1,261.5 715.2,261.5 728.3,261.5 741.4,261.5 754.5,261.5 767.6,261.5 780.7,261.5 793.8,261.5 806.9,261.5 820.0,261.5 820,270" fill="url(#grad)"/>

  <!-- Main Trend Line -->
  <polyline points="60.0,265.7 73.1,265.7 86.2,265.7 99.3,265.7 112.4,265.7 125.5,265.7 138.6,265.7 151.7,265.7 164.8,265.7 177.9,265.7 191.0,265.7 204.1,265.7 217.2,265.7 230.3,265.7 243.4,265.7 256.6,265.7 269.7,265.7 282.8,265.7 295.9,265.7 309.0,265.7 322.1,265.7 335.2,265.7 348.3,265.7 361.4,265.7 374.5,265.7 387.6,265.7 400.7,265.7 413.8,265.7 426.9,265.7 440.0,265.7 453.1,265.7 466.2,265.7 479.3,265.7 492.4,265.7 505.5,265.7 518.6,265.7 531.7,265.7 544.8,265.7 557.9,265.7 571.0,265.7 584.1,265.7 597.2,265.7 610.3,265.7 623.4,265.7 636.6,265.7 649.7,265.7 662.8,265.7 675.9,265.7 689.0,265.7 702.1,261.5 715.2,261.5 728.3,261.5 741.4,261.5 754.5,261.5 767.6,261.5 780.7,261.5 793.8,261.5 806.9,261.5 820.0,261.5" fill="none" stroke="url(#lineGrad)" stroke-width="2.5" stroke-linecap="round" stroke-linejoin="round"/>
</svg>